<svg width="60" height="48" viewBox="0 0 60 48" fill="none" xmlns="http://www.w3.org/2000/svg">
<g clip-path="url(#clip0_31_882)">
<path fill-rule="evenodd" clip-rule="evenodd" d="M12.4622 0.00549316C9.03867 0.00549316 6.50543 3.01401 6.61887 6.27667C6.72773 9.4112 6.58629 13.4709 5.5684 16.7815C4.54688 20.1015 2.82047 22.2053 0 22.4754V25.5241C2.82047 25.7947 4.54688 27.8975 5.56828 31.218C6.58629 34.5286 6.72762 38.5883 6.61875 41.7228C6.50531 44.985 9.03855 47.994 12.4627 47.994H47.5424C50.9659 47.994 53.4987 44.9855 53.3852 41.7228C53.2764 38.5883 53.4178 34.5286 54.4357 31.218C55.4572 27.8975 57.1794 25.7939 60 25.5241V22.4754C57.1795 22.2048 55.4573 20.102 54.4357 16.7815C53.4177 13.4713 53.2764 9.4112 53.3852 6.27667C53.4987 3.01448 50.9659 0.00549316 47.5424 0.00549316H12.4617H12.4622ZM40.678 29.5456C40.678 34.0381 37.3404 36.7627 31.8015 36.7627H22.3729C22.1031 36.7627 21.8445 36.6551 21.6538 36.4637C21.463 36.2722 21.3559 36.0125 21.3559 35.7417V12.2579C21.3559 11.9871 21.463 11.7274 21.6538 11.536C21.8445 11.3445 22.1031 11.2369 22.3729 11.2369H31.7479C36.3663 11.2369 39.3974 13.7487 39.3974 17.605C39.3974 20.3118 37.3583 22.7349 34.7606 23.1594V23.3006C38.2969 23.6901 40.678 26.1491 40.678 29.5456ZM30.7734 14.4736H25.3973V22.0978H29.9254C33.4257 22.0978 35.3558 20.6826 35.3558 18.1531C35.3555 15.7825 33.6961 14.4736 30.7734 14.4736ZM25.3973 25.1229V33.525H30.9712C34.6158 33.525 36.5462 32.0567 36.5462 29.2974C36.5462 26.5381 34.5616 25.1224 30.7369 25.1224H25.3973V25.1229Z" fill="#7952B3"/>
</g>
<defs>
<clipPath id="clip0_31_882">
<rect width="60" height="48" fill="white"/>
</clipPath>
</defs>
</svg>
