<svg width="386" height="331" viewBox="0 0 386 331" fill="none" xmlns="http://www.w3.org/2000/svg">
<g clip-path="url(#clip0_48_674)">
<path d="M113.438 327.546C119.634 322.301 123.398 314.016 122.411 305.949C121.424 297.883 115.311 290.468 107.38 288.755C99.4502 287.042 90.4103 291.784 88.0016 299.544C86.676 284.583 85.1485 268.995 77.208 256.254C70.0181 244.718 57.565 236.463 44.0686 234.986C30.5723 233.509 16.3624 239.087 7.94524 249.758C-0.471927 260.429 -2.53283 275.942 3.36234 288.193C7.70509 297.218 15.706 303.935 24.0889 309.399C51.1773 326.907 83.6662 334.027 115.578 329.449" fill="#F2F2F2"/>
<path d="M21.2916 239.396C32.4277 248.482 42.6439 258.644 51.7925 269.736C66.11 287.034 77.6958 306.429 86.1464 327.244C86.765 328.763 84.3035 329.424 83.6918 327.922C78.3178 314.761 71.6692 302.16 63.8413 290.299C51.6345 271.77 36.6795 255.213 19.4915 241.199C18.2207 240.162 20.0312 238.368 21.2916 239.396Z" fill="white"/>
<path d="M117.718 327.546C111.521 322.301 107.758 314.016 108.745 305.949C109.732 297.883 115.845 290.468 123.775 288.755C131.706 287.042 140.746 291.784 143.154 299.544C144.48 284.583 146.007 268.995 153.948 256.254C161.138 244.718 173.591 236.463 187.087 234.986C200.584 233.509 214.793 239.087 223.211 249.758C231.628 260.429 233.689 275.942 227.794 288.193C223.451 297.218 215.45 303.935 207.067 309.399C179.979 326.907 147.49 334.027 115.578 329.449" fill="#F2F2F2"/>
<path d="M209.864 239.396C198.728 248.482 188.512 258.644 179.363 269.736C165.046 287.034 153.46 306.429 145.009 327.244C144.391 328.763 146.852 329.424 147.464 327.922C161.291 294.093 183.364 264.276 211.664 241.199C212.935 240.162 211.125 238.368 209.864 239.396Z" fill="white"/>
<path d="M136.106 148.9C147.569 148.9 156.862 139.591 156.862 128.107C156.862 116.624 147.569 107.315 136.106 107.315C124.642 107.315 115.349 116.624 115.349 128.107C115.349 139.591 124.642 148.9 136.106 148.9Z" fill="#F2F2F2"/>
<path d="M72.1083 56.4326H215.114V64.2702H90.3642C83.0294 64.2702 75.7665 65.7173 68.99 68.5291C62.2135 71.3409 56.0562 75.4621 50.8698 80.6576C45.6833 85.8531 41.5691 92.021 38.7622 98.8092C35.9553 105.597 34.5106 112.873 34.5106 120.221V209.264H18.8627C18.171 209.264 17.5077 208.989 17.0186 208.499C16.5295 208.009 16.2547 207.345 16.2547 206.652V112.383C16.2547 105.035 17.6994 97.7599 20.5063 90.9717C23.3132 84.1834 27.4274 78.0155 32.6139 72.82C37.8004 67.6246 43.9576 63.5033 50.7341 60.6915C57.5106 57.8798 64.7735 56.4326 72.1083 56.4326Z" fill="#F2F2F2"/>
<path d="M99.6147 327.982V208.929H134.432V327.982C134.431 328.782 134.113 329.549 133.548 330.115C132.983 330.681 132.218 330.999 131.419 331H102.628C101.829 330.999 101.063 330.681 100.498 330.115C99.9334 329.549 99.6156 328.782 99.6147 327.982Z" fill="#131031"/>
<path d="M8.88957 206.582V109.774C8.90694 94.3626 15.0261 79.5875 25.9046 68.6901C36.7831 57.7928 51.5325 51.663 66.9171 51.6455H214.444V209.935H12.2374C11.3498 209.934 10.4989 209.581 9.87125 208.952C9.24364 208.323 8.89059 207.471 8.88957 206.582ZM213.105 52.9869H66.9171C51.8876 53.004 37.4785 58.9924 26.8511 69.6383C16.2236 80.2842 10.2457 94.7182 10.2287 109.774V206.582C10.2293 207.115 10.4411 207.627 10.8177 208.004C11.1942 208.381 11.7048 208.593 12.2374 208.594H213.105V52.9869Z" fill="#131031"/>
<path d="M136.106 138.839C132.91 138.835 129.847 137.562 127.588 135.299C125.328 133.035 124.057 129.967 124.054 126.766V40.2432C124.053 39.7097 123.841 39.1982 123.465 38.821C123.088 38.4438 122.578 38.2316 122.045 38.231H75.1759C74.2883 38.23 73.4374 37.8763 72.8098 37.2476C72.1822 36.6189 71.8291 35.7665 71.8281 34.8774V3.3536C71.8291 2.46448 72.1822 1.61208 72.8098 0.983379C73.4374 0.354681 74.2883 0.00102958 75.1759 0H144.81C145.698 0.00101718 146.548 0.354668 147.176 0.983369C147.804 1.61207 148.157 2.46448 148.158 3.3536V126.766C148.154 129.967 146.883 133.035 144.624 135.299C142.364 137.562 139.301 138.835 136.106 138.839Z" fill="#6C63FF"/>
<path d="M219.801 50.3038C229.901 50.2826 239.597 54.2817 246.754 61.4214C253.911 68.5611 257.944 78.2565 257.965 88.3748V198.58H332.956C335.968 198.574 338.86 199.767 340.995 201.896C343.129 204.026 344.332 206.917 344.338 209.935H181.636V88.3748C181.657 78.2565 185.69 68.5611 192.847 61.4214C200.004 54.2817 209.7 50.2826 219.801 50.3038Z" fill="#131031"/>
<path d="M210.642 113.061L218.545 145.763L373.133 108.276L365.231 75.5739C365.135 75.1741 364.941 74.8049 364.665 74.5006C364.389 74.1963 364.04 73.9668 363.652 73.8334C363.366 73.7324 363.062 73.6867 362.759 73.6987L273.4 27.3507C272.877 27.0829 272.275 27.0113 271.703 27.149C271.131 27.2866 270.627 27.6244 270.283 28.1014L227.217 88.2607L210.981 110.946C210.952 110.986 210.931 111.032 210.921 111.08C210.911 111.129 210.911 111.179 210.922 111.227C210.591 111.778 210.491 112.437 210.642 113.061Z" fill="white"/>
<path d="M210.922 111.227C210.929 111.269 210.945 111.31 210.969 111.346C210.992 111.383 211.022 111.414 211.058 111.439C211.1 111.468 211.147 111.487 211.197 111.497C211.247 111.507 211.298 111.507 211.348 111.496C211.429 111.475 211.499 111.425 211.548 111.357L211.604 111.28L212.449 110.095L227.801 88.6564L270.854 28.5109C271.1 28.1701 271.46 27.9288 271.868 27.8308C272.276 27.7328 272.705 27.7846 273.079 27.9768L361.745 73.9658L362.541 74.3795C362.573 74.393 362.606 74.4046 362.639 74.4142C362.699 74.4032 362.76 74.3974 362.821 74.3967C362.904 74.3688 362.974 74.3101 363.015 74.2326C363.037 74.1917 363.05 74.147 363.055 74.101C363.059 74.055 363.054 74.0086 363.04 73.9645C363.027 73.9203 363.005 73.8793 362.975 73.8437C362.946 73.8082 362.91 73.7788 362.869 73.7572L362.759 73.6987L273.4 27.3507C272.876 27.0829 272.275 27.0113 271.703 27.149C271.131 27.2866 270.627 27.6244 270.283 28.1014L227.217 88.2607L210.981 110.946C210.952 110.986 210.931 111.032 210.921 111.08C210.911 111.129 210.911 111.179 210.922 111.227Z" fill="#131031"/>
<path d="M257.349 114.561L260.791 114.944L286.329 117.778L303.259 119.655L304.26 119.767L325.386 103.237L326.195 102.604L331.185 98.7002L348.937 84.812L349.044 83.8365L355.358 26.7489C355.444 25.9628 355.215 25.1746 354.722 24.557C354.229 23.9395 353.512 23.5431 352.727 23.4546L268.459 14.1036C267.675 14.0178 266.888 14.2469 266.272 14.7409C265.655 15.2348 265.259 15.9533 265.171 16.739L260.718 57.0073L258.248 79.3328L256.038 99.3058L255.014 108.581L254.715 111.268C254.63 112.054 254.859 112.843 255.353 113.46C255.847 114.077 256.565 114.473 257.349 114.561Z" fill="#E6E6E6"/>
<path d="M280.506 64.5216L317.008 68.5714L329.953 70.0072C330.525 70.0706 331.103 70.0206 331.655 69.8601C332.208 69.6996 332.723 69.4317 333.172 69.0717C333.621 68.7117 333.994 68.2667 334.272 67.762C334.549 67.2574 334.724 66.7029 334.787 66.1304C334.851 65.5579 334.801 64.9785 334.64 64.4253C334.48 63.8721 334.213 63.3559 333.853 62.9063C333.494 62.4566 333.05 62.0823 332.546 61.8046C332.042 61.5269 331.489 61.3513 330.917 61.2879L314.817 59.5017L281.473 55.798C280.318 55.6703 279.16 56.007 278.254 56.7342C277.347 57.4613 276.766 58.5195 276.638 59.6759C276.509 60.8323 276.845 61.9924 277.57 62.901C278.296 63.8097 279.352 64.3926 280.506 64.5216Z" fill="white"/>
<path d="M278.428 80.6969C278.522 80.7137 278.616 80.7306 278.712 80.7399L321.085 85.4422L328.16 86.2289C329.315 86.3568 330.473 86.0201 331.38 85.2926C332.286 84.5652 332.868 83.5067 332.995 82.35C333.123 81.1933 332.787 80.0331 332.061 79.1247C331.335 78.2163 330.278 77.6342 329.123 77.5062L318.893 76.3725L285.328 72.6467L279.68 72.0197C278.55 71.8935 277.416 72.2123 276.516 72.9086C275.617 73.605 275.023 74.6244 274.861 75.7513C274.698 76.8782 274.98 78.0243 275.645 78.9472C276.311 79.8701 277.309 80.4976 278.428 80.6969Z" fill="white"/>
<path d="M273.632 95.0393C273.979 95.6168 274.455 96.1063 275.022 96.4699C275.588 96.8334 276.231 97.0612 276.9 97.1355L294.267 99.0624L325.199 102.495L325.206 102.493L326.195 102.604L331.185 98.7002C331.216 98.4036 331.216 98.1047 331.185 97.8081C331.08 96.8123 330.639 95.8824 329.934 95.1721C329.23 94.4618 328.304 94.0137 327.311 93.9019L323.014 93.4237L305.969 91.5342L293.705 90.1716L277.863 88.4129C277.051 88.3228 276.23 88.4621 275.493 88.8149C274.756 89.1677 274.132 89.72 273.692 90.4093C273.252 91.0986 273.013 91.8975 273.003 92.7157C272.992 93.5338 273.21 94.3387 273.632 95.0393Z" fill="white"/>
<path d="M298.026 44.7499L307.108 45.7576L311.12 46.2038L317.179 46.8756C318.334 47.0036 319.492 46.6668 320.399 45.9393C321.306 45.2119 321.887 44.1534 322.015 42.9967C322.143 41.84 321.806 40.6798 321.08 39.7715C320.354 38.8631 319.297 38.2809 318.143 38.1529L298.994 36.0298C297.839 35.9013 296.681 36.2374 295.774 36.9641C294.867 37.6909 294.286 38.7489 294.157 39.9052C294.029 41.0616 294.365 42.2217 295.09 43.1302C295.816 44.0388 296.872 44.6214 298.026 44.7499Z" fill="white"/>
<path d="M223.762 69.0383L234.835 114.858L253.315 118.378L270.411 121.638L288.752 125.134L294.613 126.251C294.956 126.316 295.309 126.307 295.648 126.225C295.988 126.143 296.306 125.989 296.581 125.774L301.283 122.096L304.26 119.767L325.386 103.237L311.953 47.6521C311.82 47.0991 311.531 46.5962 311.12 46.204C310.759 45.8569 310.317 45.6063 309.835 45.4753C309.352 45.3444 308.844 45.3373 308.358 45.4547L225.956 65.4372C225.188 65.6238 224.526 66.1078 224.115 66.783C223.704 67.4583 223.577 68.2694 223.762 69.0383Z" fill="#6C63FF"/>
<path d="M249.152 105.489C249.426 106.62 250.137 107.595 251.128 108.201C252.119 108.806 253.31 108.994 254.439 108.721L302.79 96.9956C303.918 96.7204 304.891 96.0084 305.496 95.0157C306.101 94.0229 306.288 92.8305 306.016 91.6998C306.004 91.6437 305.988 91.5885 305.969 91.5343C305.66 90.4442 304.942 89.5161 303.966 88.9445C302.989 88.373 301.829 88.2023 300.73 88.4682L252.378 100.194C251.25 100.468 250.276 101.18 249.671 102.173C249.066 103.166 248.88 104.359 249.152 105.489Z" fill="white"/>
<path d="M253.315 118.378L270.411 121.638L306.623 112.857C307.752 112.583 308.726 111.871 309.331 110.878C309.936 109.885 310.123 108.692 309.849 107.561C309.576 106.43 308.865 105.454 307.874 104.848C306.883 104.242 305.691 104.055 304.563 104.329L256.211 116.054C255.2 116.298 254.31 116.895 253.702 117.739C253.555 117.941 253.426 118.154 253.315 118.378Z" fill="white"/>
<path d="M288.752 125.134L294.613 126.252C294.956 126.317 295.309 126.308 295.648 126.225C295.988 126.143 296.306 125.989 296.581 125.774L301.283 122.096L288.752 125.134Z" fill="white"/>
<path d="M258.894 80.9201C259.169 82.0504 259.879 83.0255 260.871 83.6313C261.862 84.2372 263.052 84.4243 264.181 84.1516L282.909 79.6102C284.037 79.3349 285.01 78.6229 285.615 77.6302C286.219 76.6374 286.406 75.445 286.135 74.3143C285.989 73.7067 285.714 73.1379 285.328 72.6467C284.81 71.9828 284.112 71.4823 283.318 71.205C282.523 70.9277 281.666 70.8852 280.848 71.0828L262.12 75.6242C260.992 75.8981 260.018 76.6099 259.413 77.603C258.808 78.5961 258.621 79.7893 258.894 80.9201Z" fill="white"/>
<path d="M270.409 121.638L288.754 125.135L294.613 126.252C294.956 126.317 295.308 126.307 295.647 126.225C295.986 126.143 296.304 125.99 296.58 125.775L301.285 122.096L299.634 122.496L296.148 125.22C295.951 125.373 295.724 125.483 295.482 125.541C295.24 125.6 294.988 125.607 294.743 125.561L290.405 124.734L272.06 121.237L270.409 121.638ZM325.204 102.496L325.383 103.235L326.197 102.601L325.204 102.496ZM270.409 121.638L288.754 125.135L294.613 126.252C294.956 126.317 295.308 126.307 295.647 126.225C295.986 126.143 296.304 125.99 296.58 125.775L301.285 122.096L299.634 122.496L296.148 125.22C295.951 125.373 295.724 125.483 295.482 125.541C295.24 125.6 294.988 125.607 294.743 125.561L290.405 124.734L272.06 121.237L270.409 121.638ZM270.409 121.638L288.754 125.135L294.613 126.252C294.956 126.317 295.308 126.307 295.647 126.225C295.986 126.143 296.304 125.99 296.58 125.775L301.285 122.096L299.634 122.496L296.148 125.22C295.951 125.373 295.724 125.483 295.482 125.541C295.24 125.6 294.988 125.607 294.743 125.561L290.405 124.734L272.06 121.237L270.409 121.638ZM210.642 113.061L231.342 198.719C231.496 199.352 231.894 199.898 232.449 200.237C233.004 200.577 233.671 200.682 234.303 200.529L384.124 164.198C384.756 164.044 385.301 163.645 385.64 163.089C385.979 162.533 386.083 161.865 385.931 161.232L365.231 75.5739C365.135 75.174 364.941 74.8048 364.665 74.5006C364.389 74.1963 364.04 73.9668 363.652 73.8333C363.366 73.7324 363.062 73.6867 362.759 73.6987C362.405 73.7089 362.058 73.8003 361.745 73.9658C361.601 74.0345 361.464 74.1194 361.339 74.2187L349.043 83.8367L331.185 97.8101L325.203 102.491L325.204 102.496L325.199 102.497L303.261 119.653L299.634 122.496L296.148 125.22C295.951 125.373 295.724 125.483 295.482 125.541C295.24 125.6 294.988 125.607 294.743 125.561L290.405 124.734L272.06 121.237L253.7 117.739L213.485 110.073C213.142 110.005 212.789 110.013 212.449 110.095C211.992 110.207 211.576 110.449 211.252 110.79C211.127 110.924 211.017 111.071 210.922 111.227C210.591 111.778 210.491 112.437 210.642 113.061ZM270.409 121.638L288.754 125.135L294.613 126.252C294.956 126.317 295.308 126.307 295.647 126.225C295.986 126.143 296.304 125.99 296.58 125.775L301.285 122.096L299.634 122.496L296.148 125.22C295.951 125.373 295.724 125.483 295.482 125.541C295.24 125.6 294.988 125.607 294.743 125.561L290.405 124.734L272.06 121.237L270.409 121.638ZM270.409 121.638L288.754 125.135L294.613 126.252C294.956 126.317 295.308 126.307 295.647 126.225C295.986 126.143 296.304 125.99 296.58 125.775L301.285 122.096L299.634 122.496L296.148 125.22C295.951 125.373 295.724 125.483 295.482 125.541C295.24 125.6 294.988 125.607 294.743 125.561L290.405 124.734L272.06 121.237L270.409 121.638ZM270.409 121.638L288.754 125.135L294.613 126.252C294.956 126.317 295.308 126.307 295.647 126.225C295.986 126.143 296.304 125.99 296.58 125.775L301.285 122.096L299.634 122.496L296.148 125.22C295.951 125.373 295.724 125.483 295.482 125.541C295.24 125.6 294.988 125.607 294.743 125.561L290.405 124.734L272.06 121.237L270.409 121.638Z" fill="white"/>
<path d="M270.409 121.638L288.754 125.135L294.613 126.252C294.956 126.317 295.308 126.307 295.647 126.225C295.986 126.143 296.304 125.989 296.58 125.775L301.285 122.096L299.634 122.496L296.148 125.22C295.951 125.373 295.724 125.482 295.482 125.541C295.24 125.6 294.988 125.607 294.743 125.561L290.405 124.734L272.06 121.237L270.409 121.638ZM325.204 102.496L325.383 103.235L326.197 102.601L325.204 102.496ZM270.409 121.638L288.754 125.135L294.613 126.252C294.956 126.317 295.308 126.307 295.647 126.225C295.986 126.143 296.304 125.989 296.58 125.775L301.285 122.096L299.634 122.496L296.148 125.22C295.951 125.373 295.724 125.482 295.482 125.541C295.24 125.6 294.988 125.607 294.743 125.561L290.405 124.734L272.06 121.237L270.409 121.638ZM270.409 121.638L288.754 125.135L294.613 126.252C294.956 126.317 295.308 126.307 295.647 126.225C295.986 126.143 296.304 125.989 296.58 125.775L301.285 122.096L299.634 122.496L296.148 125.22C295.951 125.373 295.724 125.482 295.482 125.541C295.24 125.6 294.988 125.607 294.743 125.561L290.405 124.734L272.06 121.237L270.409 121.638ZM211.604 111.28L211.695 111.348C211.71 111.323 211.736 111.301 211.756 111.275C211.959 111.063 212.211 110.905 212.49 110.815C212.769 110.726 213.065 110.706 213.353 110.76L253.316 118.375L270.409 121.638L288.754 125.135L294.613 126.252C294.956 126.317 295.308 126.307 295.647 126.225C295.986 126.143 296.304 125.989 296.58 125.775L301.285 122.096L299.634 122.496L296.148 125.22C295.951 125.373 295.724 125.482 295.482 125.541C295.24 125.6 294.988 125.607 294.743 125.561L290.405 124.734L272.06 121.237L253.7 117.739L213.485 110.073C213.142 110.005 212.789 110.013 212.449 110.095L211.604 111.28ZM210.642 113.061L231.342 198.719C231.496 199.352 231.894 199.898 232.449 200.237C233.004 200.577 233.671 200.682 234.303 200.529L384.124 164.198C384.756 164.044 385.301 163.645 385.64 163.089C385.979 162.533 386.083 161.865 385.931 161.232L365.231 75.5739C365.135 75.174 364.941 74.8048 364.665 74.5006C364.389 74.1963 364.04 73.9668 363.652 73.8333C363.366 73.7324 363.062 73.6867 362.759 73.6987C362.405 73.7089 362.058 73.8003 361.745 73.9658C361.601 74.0345 361.464 74.1194 361.339 74.2187L349.043 83.8367L331.185 97.8101L325.203 102.491L325.204 102.496L325.199 102.497L303.261 119.653L299.634 122.496L296.148 125.22C295.951 125.373 295.724 125.482 295.482 125.541C295.24 125.6 294.988 125.607 294.743 125.561L290.405 124.734L272.06 121.237L253.7 117.739L213.485 110.073C213.142 110.005 212.789 110.013 212.449 110.095C211.992 110.207 211.576 110.449 211.252 110.79C211.127 110.924 211.017 111.071 210.922 111.227C210.591 111.778 210.491 112.437 210.642 113.061ZM211.325 112.896C211.264 112.643 211.26 112.38 211.313 112.126C211.367 111.872 211.476 111.633 211.634 111.427C211.648 111.396 211.669 111.37 211.695 111.348C211.71 111.323 211.736 111.301 211.756 111.275C211.959 111.063 212.211 110.905 212.49 110.815C212.769 110.726 213.065 110.706 213.353 110.76L253.316 118.375L270.409 121.638L288.754 125.135L294.613 126.252C294.956 126.317 295.308 126.307 295.647 126.225C295.986 126.143 296.304 125.989 296.58 125.775L301.285 122.096L304.26 119.767L325.383 103.235L326.197 102.601L331.182 98.6995L348.938 84.8093L361.774 74.7676C361.969 74.6152 362.195 74.5061 362.435 74.4477C362.502 74.4312 362.571 74.42 362.639 74.4141C362.699 74.4032 362.76 74.3973 362.821 74.3967C363.026 74.3947 363.23 74.4281 363.424 74.4952C363.701 74.5917 363.949 74.756 364.146 74.9731C364.343 75.1902 364.483 75.4532 364.553 75.7382L385.253 161.396C385.308 161.62 385.317 161.853 385.282 162.082C385.246 162.31 385.166 162.529 385.046 162.726C384.926 162.923 384.768 163.095 384.582 163.231C384.396 163.367 384.184 163.465 383.96 163.519L234.139 199.85C233.687 199.959 233.21 199.884 232.814 199.641C232.418 199.397 232.134 199.006 232.025 198.554L211.325 112.896ZM270.409 121.638L288.754 125.135L294.613 126.252C294.956 126.317 295.308 126.307 295.647 126.225C295.986 126.143 296.304 125.989 296.58 125.775L301.285 122.096L299.634 122.496L296.148 125.22C295.951 125.373 295.724 125.482 295.482 125.541C295.24 125.6 294.988 125.607 294.743 125.561L290.405 124.734L272.06 121.237L270.409 121.638ZM270.409 121.638L288.754 125.135L294.613 126.252C294.956 126.317 295.308 126.307 295.647 126.225C295.986 126.143 296.304 125.989 296.58 125.775L301.285 122.096L299.634 122.496L296.148 125.22C295.951 125.373 295.724 125.482 295.482 125.541C295.24 125.6 294.988 125.607 294.743 125.561L290.405 124.734L272.06 121.237L270.409 121.638ZM270.409 121.638L288.754 125.135L294.613 126.252C294.956 126.317 295.308 126.307 295.647 126.225C295.986 126.143 296.304 125.989 296.58 125.775L301.285 122.096L299.634 122.496L296.148 125.22C295.951 125.373 295.724 125.482 295.482 125.541C295.24 125.6 294.988 125.607 294.743 125.561L290.405 124.734L272.06 121.237L270.409 121.638Z" fill="#131031"/>
<path d="M345.076 147.369C344.739 145.965 344.971 144.485 345.722 143.252C346.472 142.02 347.68 141.136 349.081 140.795L367.99 136.209C369.389 135.875 370.864 136.11 372.09 136.863C373.317 137.616 374.196 138.825 374.534 140.225C374.873 141.626 374.643 143.104 373.896 144.335C373.149 145.566 371.945 146.451 370.548 146.795L351.639 151.38C350.238 151.718 348.76 151.486 347.53 150.734C346.299 149.982 345.417 148.772 345.076 147.369Z" fill="#6C63FF"/>
<path d="M136.106 131.461C138.694 131.461 140.793 129.359 140.793 126.766C140.793 124.173 138.694 122.071 136.106 122.071C133.517 122.071 131.419 124.173 131.419 126.766C131.419 129.359 133.517 131.461 136.106 131.461Z" fill="white"/>
</g>
<defs>
<clipPath id="clip0_48_674">
<rect width="386" height="331" fill="white"/>
</clipPath>
</defs>
</svg>
