<svg width="74" height="47" viewBox="0 0 74 47" fill="none" xmlns="http://www.w3.org/2000/svg">
<g clip-path="url(#clip0_31_884)">
<path d="M3.7585 23.9317C3.56977 23.7296 3.33976 23.569 3.08616 23.4561C2.83256 23.3431 2.56127 23.2896 2.28408 23.2896C2.00688 23.2836 1.73559 23.3431 1.48199 23.4501C1.22839 23.5631 0.998376 23.7236 0.80965 23.9258C0.615026 24.122 0.461686 24.3539 0.361425 24.6095C0.261164 24.8712 0.208085 25.1447 0.208085 25.4182C0.202187 25.6976 0.255266 25.9711 0.361425 26.2268C0.467583 26.4825 0.620924 26.7143 0.815548 26.9106C1.00433 27.1128 1.2331 27.2729 1.48707 27.3804C1.74104 27.4879 2.01457 27.5406 2.28997 27.5349C2.56479 27.5364 2.83707 27.4819 3.09045 27.3746C3.34383 27.2673 3.57308 27.1095 3.7644 26.9106C3.96492 26.7203 4.11826 26.4884 4.22442 26.2327C4.33058 25.9771 4.38366 25.7036 4.38366 25.4241C4.38366 25.1447 4.33058 24.8712 4.22442 24.6155C4.11236 24.3539 3.95902 24.122 3.7585 23.9317ZM28.4404 19.1038C28.4109 20.4356 28.4758 21.7734 28.6291 23.0993H28.5583C28.3932 22.7723 28.0275 22.1658 27.4673 21.2799L14.0205 0H9.93929V27.1662H13.0769V7.52735C13.1123 6.28468 13.0592 5.04201 12.9294 3.79935H13.0474C13.2715 4.39392 13.5605 4.96472 13.9025 5.49984L27.715 27.1662H31.5779V0H28.4404V19.1038ZM52.851 24.1815H41.7633V14.7693H51.465V11.9034H41.7633V2.87775H52.1727V0H38.549V27.1662H52.8333L52.851 24.1815ZM55.2513 0V2.87775H62.9773V27.1662H66.1149V2.87775H73.9293V0H55.2513ZM24.5007 33.9206C23.717 34.2359 23.0092 34.7163 22.4247 35.3298C21.8232 35.9779 21.3513 36.7389 21.0447 37.5773C20.738 38.4156 20.6023 39.3015 20.6377 40.1875C20.5787 41.8285 21.1449 43.4339 22.2301 44.6587C22.7727 45.2354 23.4332 45.6814 24.1645 45.9786C24.8959 46.2759 25.6803 46.4067 26.4646 46.3711C27.6442 46.4127 28.8178 46.163 29.8853 45.6397L29.8971 44.2544C28.9181 44.8311 27.8034 45.1165 26.6711 45.0868C26.0636 45.1106 25.4561 45.0035 24.8959 44.7717C24.3356 44.5398 23.8284 44.183 23.4155 43.7312C22.5522 42.7202 22.1086 41.4127 22.177 40.0804C22.1062 38.6713 22.584 37.2919 23.504 36.2335C23.9404 35.746 24.4771 35.3654 25.0728 35.1038C25.6707 34.8474 26.3164 34.7237 26.9659 34.7411C27.998 34.7233 29.0124 34.979 29.9148 35.4844V33.992C28.979 33.6115 27.9744 33.4333 26.9659 33.4687C26.1226 33.4569 25.2792 33.6055 24.5007 33.9206ZM39.2037 38.1778C38.8095 37.7598 38.3302 37.4329 37.7988 37.2194C37.2673 37.0059 36.6964 36.911 36.1251 36.9411C35.5176 36.9114 34.916 37.0124 34.3499 37.2324C33.7837 37.4524 33.2706 37.7854 32.8342 38.2075C32.4095 38.6832 32.0851 39.2361 31.8728 39.8426C31.6605 40.4491 31.5721 41.0853 31.6133 41.7274C31.5544 42.9463 31.9731 44.1414 32.7752 45.0511C33.1762 45.4851 33.6598 45.83 34.2024 46.0619C34.745 46.2878 35.3289 46.4008 35.9128 46.377C36.5084 46.3949 37.1041 46.2819 37.6585 46.05C38.2129 45.8181 38.7083 45.4673 39.1152 45.0214C39.9423 44.0814 40.3701 42.8515 40.3065 41.5966C40.3773 40.348 39.9822 39.1291 39.2037 38.1778ZM38.1244 44.2841C37.8649 44.5861 37.5402 44.8241 37.1752 44.9797C36.8102 45.1354 36.4146 45.2045 36.0189 45.1819C35.612 45.1998 35.2109 45.1225 34.8394 44.9679C34.4678 44.8073 34.1376 44.5695 33.8663 44.2603C33.301 43.5549 33.0171 42.6624 33.0701 41.7572C33.017 40.8237 33.3001 39.9021 33.8663 39.1648C34.1317 38.8556 34.4619 38.6118 34.8335 38.4454C35.205 38.2848 35.612 38.2075 36.013 38.2254C36.4141 38.2016 36.8092 38.2789 37.1749 38.4394C37.5405 38.5999 37.8649 38.8437 38.1244 39.1529C38.6604 39.9004 38.9211 40.813 38.8616 41.7334C38.9206 42.6371 38.6611 43.5468 38.1244 44.2841ZM44.9598 37.5951C44.5175 37.9935 44.1931 38.5108 44.0339 39.0875V37.2205H42.5595V46.163H44.0339V41.6026C43.9867 40.7761 44.199 39.9496 44.6355 39.248C44.7947 38.9924 45.007 38.7783 45.2665 38.6297C45.526 38.481 45.815 38.3918 46.1099 38.3859C46.4873 38.3562 46.8648 38.4572 47.1833 38.6713V37.1967C46.912 37.1076 46.6289 37.0659 46.3458 37.0778C45.8386 37.0719 45.3491 37.2562 44.9598 37.5951ZM55.8116 41.2874C55.8824 40.1518 55.5462 39.034 54.868 38.1302C54.5318 37.7497 54.119 37.4465 53.653 37.2503C53.1871 37.054 52.6858 36.9649 52.1845 36.9946C51.6301 36.9768 51.0757 37.0897 50.5626 37.3157C50.0554 37.5416 49.6013 37.8805 49.2357 38.3086C48.4349 39.2505 48.0195 40.4643 48.0738 41.7036C47.9971 42.9404 48.3805 44.1652 49.1472 45.1284C49.5187 45.5387 49.9788 45.8597 50.486 46.0738C50.9932 46.2878 51.5476 46.377 52.096 46.3532C53.1871 46.4067 54.2664 46.1095 55.1746 45.503V44.1592C54.3986 44.7949 53.432 45.147 52.4322 45.1581C52.0489 45.1819 51.6596 45.1225 51.2999 44.9798C50.9401 44.8371 50.6098 44.629 50.3385 44.3495C49.8116 43.7066 49.5442 42.8872 49.5895 42.0544H55.8234L55.8116 41.2874ZM49.5777 40.8712C49.6544 40.1637 49.9611 39.4978 50.4447 38.9805C50.6614 38.7457 50.9245 38.5593 51.2171 38.4334C51.5096 38.3074 51.8251 38.2446 52.1432 38.2491C52.4499 38.2313 52.7507 38.2848 53.0338 38.4037C53.3169 38.5227 53.5646 38.701 53.7651 38.9329C54.1779 39.4859 54.3843 40.1637 54.3549 40.8534L49.5777 40.8712Z" fill="#621EE5"/>
</g>
<defs>
<clipPath id="clip0_31_884">
<rect width="74" height="47" fill="white"/>
</clipPath>
</defs>
</svg>
