<svg width="66" height="49" viewBox="0 0 66 49" fill="none" xmlns="http://www.w3.org/2000/svg">
<g clip-path="url(#clip0_31_1199)">
<path d="M56.795 28.1634C54.4938 28.1753 52.4938 28.7243 50.8191 29.5358C50.2047 28.3305 49.5902 27.2564 49.4818 26.4688C49.3613 25.5499 49.2167 24.989 49.3613 23.8911C49.5059 22.7932 50.1565 21.2299 50.1444 21.1105C50.1324 20.9912 49.9999 20.4303 48.6746 20.4184C47.3493 20.4065 46.2047 20.669 46.0722 21.0151C45.9396 21.3612 45.6866 22.1488 45.5179 22.9603C45.289 24.1537 42.8673 28.414 41.4818 30.6456C41.036 29.7744 40.6505 29.0107 40.5661 28.4021C40.4457 27.4832 40.3011 26.9223 40.4457 25.8244C40.5902 24.7265 41.2408 23.1632 41.2288 23.0438C41.2167 22.9245 41.0842 22.3636 39.7589 22.3517C38.4336 22.3397 37.289 22.6023 37.1565 22.9483C37.024 23.2944 36.8794 24.1059 36.6023 24.8935C36.3252 25.6812 33.1083 32.7937 32.2649 34.6315C31.8312 35.5743 31.4577 36.3261 31.1926 36.8392C31.1926 36.8392 31.1806 36.875 31.1444 36.9347C30.9155 37.3763 30.783 37.6149 30.783 37.6149C30.783 37.6149 30.783 37.6149 30.783 37.6269C30.6023 37.9491 30.4095 38.2474 30.3131 38.2474C30.2408 38.2474 30.1083 37.3882 30.3372 36.2187C30.8191 33.7484 31.9637 29.9057 31.9517 29.7745C31.9517 29.7028 32.1685 29.0346 31.2047 28.6885C30.2649 28.3424 29.9276 28.9152 29.8432 28.9152C29.7589 28.9152 29.6987 29.1181 29.6987 29.1181C29.6987 29.1181 30.7469 24.7981 27.6987 24.7981C25.795 24.7981 23.1685 26.8626 21.8673 28.7243C21.0481 29.1658 19.3011 30.1086 17.4336 31.123C16.7228 31.5168 15.9878 31.9106 15.3011 32.2805C15.2529 32.2328 15.2047 32.1731 15.1565 32.1254C11.4697 28.2231 4.65047 25.4664 4.93962 20.2274C5.04806 18.318 5.71071 13.3059 18.036 7.21965C28.1806 2.26714 36.2529 3.63953 37.6505 6.68263C39.6505 11.0265 33.3252 19.0937 22.8432 20.2632C18.8432 20.7048 16.7469 19.1773 16.2167 18.6045C15.6625 18.0078 15.5782 17.972 15.3734 18.0913C15.036 18.2703 15.2529 18.8073 15.3734 19.1176C15.6866 19.9291 16.9758 21.3612 19.1565 22.0652C21.0842 22.6858 25.7709 23.0319 31.4456 20.8599C37.795 18.4254 42.7589 11.659 41.3011 5.99048C39.8432 0.238405 30.2047 -1.65906 21.0842 1.55112C15.6625 3.46052 9.783 6.46783 5.55408 10.3821C0.529983 15.0363 -0.265197 19.0818 0.060104 20.7764C1.22878 26.791 9.60227 30.7053 12.9517 33.6052C12.783 33.7007 12.6264 33.7842 12.4938 33.8558C10.8191 34.6792 4.4336 37.9849 2.84324 41.4815C1.03601 45.4435 3.13239 48.2837 4.51794 48.6656C8.81914 49.847 13.2408 47.7228 15.6143 44.2143C17.9878 40.7058 17.6987 36.1471 16.6023 34.0587C16.5902 34.0348 16.5782 34.0109 16.5541 33.9871C16.9878 33.7365 17.4336 33.4739 17.8673 33.2233C18.7228 32.7221 19.5661 32.2567 20.289 31.8748C19.8794 32.9846 19.5782 34.3093 19.4336 36.2187C19.2529 38.4622 20.1806 41.3741 21.3975 42.5197C21.9396 43.0209 22.5782 43.0329 22.9878 43.0329C24.4095 43.0329 25.0481 41.8633 25.7589 40.479C26.6264 38.7844 27.4095 36.8154 27.4095 36.8154C27.4095 36.8154 26.4336 42.1378 29.0842 42.1378C30.0481 42.1378 31.024 40.8967 31.4577 40.2642C31.4577 40.2762 31.4577 40.2762 31.4577 40.2762C31.4577 40.2762 31.4818 40.2404 31.53 40.1568C31.6264 40.0017 31.6866 39.9062 31.6866 39.9062C31.6866 39.9062 31.6866 39.8943 31.6866 39.8823C32.0722 39.2141 32.9396 37.6985 34.2288 35.1804C35.8914 31.9345 37.4938 27.877 37.4938 27.877C37.4938 27.877 37.6384 28.8675 38.1324 30.5143C38.4216 31.481 39.024 32.5431 39.5059 33.5694C39.1203 34.1064 38.8794 34.4047 38.8794 34.4047C38.8794 34.4047 38.8794 34.4047 38.8914 34.4167C38.5782 34.8224 38.2408 35.264 37.8673 35.6936C36.5541 37.245 34.9878 39.0231 34.771 39.5363C34.5179 40.1449 34.5782 40.5864 35.0601 40.9444C35.4095 41.207 36.036 41.2428 36.6746 41.207C37.8553 41.1235 38.6866 40.837 39.0963 40.658C39.7348 40.4313 40.4818 40.0852 41.1806 39.5721C42.4697 38.6293 43.2529 37.2808 43.1806 35.5027C43.1444 34.5241 42.8191 33.5455 42.4216 32.6266C42.542 32.4595 42.6505 32.2925 42.771 32.1254C44.8071 29.1778 46.3854 25.9437 46.3854 25.9437C46.3854 25.9437 46.53 26.9342 47.024 28.5811C47.2649 29.4164 47.7589 30.3234 48.1926 31.2065C46.277 32.746 45.0962 34.536 44.6746 35.7055C43.9155 37.8775 44.5059 38.856 45.6264 39.0828C46.1324 39.1902 46.8553 38.9515 47.3854 38.7248C48.0601 38.51 48.8553 38.14 49.6143 37.5911C50.9035 36.6483 52.1444 35.3356 52.0722 33.5575C52.036 32.746 51.8191 31.9464 51.5179 31.1707C53.1444 30.5024 55.2408 30.1325 57.9155 30.4427C63.6505 31.111 64.783 34.6554 64.5661 36.1471C64.3493 37.6388 63.1444 38.4503 62.7469 38.7009C62.3493 38.9515 62.2167 39.035 62.2529 39.2141C62.3011 39.4766 62.4938 39.4647 62.8312 39.4169C63.3011 39.3334 65.8432 38.2116 65.9517 35.4669C66.1324 31.9583 62.7589 28.1276 56.795 28.1634ZM12.5541 42.9374C10.6505 44.99 7.99986 45.7657 6.85529 45.1093C5.62637 44.4052 6.1083 41.3741 8.44565 39.2021C9.86733 37.8775 11.6987 36.6483 12.9155 35.8965C13.1926 35.7294 13.6023 35.4907 14.0963 35.1924C14.1806 35.1446 14.2288 35.1208 14.2288 35.1208C14.3252 35.0611 14.4216 35.0014 14.5179 34.9418C15.3734 38.0445 14.5541 40.7774 12.5541 42.9374ZM26.4095 33.6052C25.7469 35.2043 24.3613 39.2976 23.5179 39.0708C22.795 38.8799 22.3493 35.7771 23.3734 32.7102C23.8914 31.1707 24.9878 29.3329 25.6264 28.6169C26.6625 27.4712 27.8071 27.0894 28.0842 27.5548C28.4336 28.1634 26.8191 32.6027 26.4095 33.6052ZM37.8432 39.0231C37.5661 39.1663 37.3011 39.2618 37.1806 39.1902C37.0963 39.1424 37.3011 38.9515 37.3011 38.9515C37.3011 38.9515 38.7348 37.424 39.3011 36.7318C39.6264 36.3261 40.0119 35.8487 40.4216 35.3117C40.4216 35.3594 40.4216 35.4191 40.4216 35.4669C40.4216 37.2927 38.6384 38.5219 37.8432 39.0231ZM46.6625 37.0302C46.4577 36.887 46.4938 36.4096 47.1806 34.9179C47.4457 34.3331 48.0722 33.3546 49.1444 32.4118C49.2649 32.7937 49.3493 33.1636 49.3372 33.5097C49.3252 35.8129 47.6625 36.6722 46.6625 37.0302Z" fill="#CD6799"/>
</g>
<defs>
<clipPath id="clip0_31_1199">
<rect width="66" height="49" fill="white"/>
</clipPath>
</defs>
</svg>
